<svg width="67" height="66" viewBox="0 0 67 66" fill="none" xmlns="http://www.w3.org/2000/svg">
<rect x="1" y="0.5" width="65" height="65" rx="7.5" fill="#FFF9F0"/>
<rect x="1" y="0.5" width="65" height="65" rx="7.5" stroke="#FFEACC"/>
<path d="M25.726 47.7091H44.1537C44.7799 47.7091 45.2921 47.211 45.2921 46.5707C45.2921 46.0726 44.9506 45.6314 44.4953 45.4749C42.7023 44.7635 42.3323 42.4439 44.0969 40.6652C44.6376 40.1245 45.2921 39.4273 45.2921 38.0043V21.6826C45.2921 18.7227 43.8264 17.2144 40.8808 17.2144H25.7687C22.8231 17.2144 21.3574 18.7085 21.3574 21.6826V43.312C21.3574 46.2433 22.8373 47.7091 25.726 47.7091ZM25.8541 45.4181C24.4169 45.4181 23.6484 44.6497 23.6484 43.2978C23.6484 42.0171 24.5592 41.1918 25.9821 41.1918H40.582C40.767 41.1918 40.9378 41.1776 41.0801 41.149C40.4113 42.629 40.5252 44.1943 41.2792 45.4181H25.8541ZM25.4272 39.0288C24.986 39.0288 24.6161 38.6589 24.6161 38.2035V20.2311C24.6161 19.7757 24.986 19.42 25.4272 19.42C25.8683 19.42 26.2525 19.7757 26.2525 20.2311V38.2035C26.2525 38.6589 25.8683 39.0288 25.4272 39.0288Z" fill="#007AFF"/>
</svg>
