<svg width="95" height="34" viewBox="0 0 95 34" fill="none" xmlns="http://www.w3.org/2000/svg">
<g clip-path="url(#clip0_149_169)">
<path d="M11.0481 4.25H0.681641V29.0417L11.0481 4.25Z" fill="#4C4C4D"/>
<path d="M18.3418 4.25H28.6947V29.0417L18.3418 4.25Z" fill="#4C4C4D"/>
<path d="M14.6946 13.3877L21.2927 29.042H16.9637L14.9918 24.058H10.1631L14.6946 13.3877Z" fill="#4C4C4D"/>
<path d="M45.6077 20.0148L46.83 23.5198C46.8706 23.6076 46.9313 23.6482 47.0394 23.6482H49.3896C49.5179 23.6482 49.5382 23.5874 49.5179 23.4591L44.6622 9.97255C44.642 9.8645 44.6217 9.84424 44.5136 9.84424H41.5962C41.5151 9.84424 41.4679 9.90502 41.4679 9.99281C41.4273 10.7019 41.3666 10.918 41.2788 11.1274L36.9498 23.4388C36.9296 23.5874 36.9769 23.6482 37.0984 23.6482H39.1987C39.327 23.6482 39.3878 23.6076 39.4351 23.4793L40.5899 20.0148H45.6077ZM41.2585 17.7254C41.8933 15.8075 42.7307 13.3492 43.0684 11.9445H43.0887C43.5074 13.4168 44.4934 16.3342 44.9391 17.7254H41.2585Z" fill="#4C4C4D"/>
<path d="M55.7605 23.8566C57.0233 23.8566 58.3673 23.627 59.7315 23.0394C59.8395 22.9989 59.8598 22.9516 59.8598 22.8503C59.8192 22.4721 59.772 21.9251 59.772 21.5064V8.81004C59.772 8.729 59.772 8.68848 59.6707 8.68848H57.3813C57.2935 8.68848 57.253 8.729 57.253 8.83705V13.139C56.895 13.0984 56.6452 13.0782 56.348 13.0782C52.6539 13.0782 50.3848 15.5161 50.3848 18.5619C50.3848 22.0939 52.7147 23.8566 55.7605 23.8566ZM57.253 21.5064C56.8748 21.628 56.4561 21.6752 56.0306 21.6752C54.3558 21.6752 52.9848 20.7298 52.9848 18.4336C52.9848 16.4008 54.3963 15.1987 56.267 15.1987C56.6452 15.1987 56.9761 15.2393 57.253 15.3473V21.5064Z" fill="#4C4C4D"/>
<path d="M67.1612 13.0796C64.0074 13.0796 62.0557 15.4973 62.0557 18.4823C62.0557 21.1499 63.6089 23.858 67.1139 23.858C70.0787 23.858 72.1587 21.6766 72.1587 18.4148C72.1587 15.5378 70.3961 13.0796 67.1612 13.0796ZM67.0329 15.2002C68.8158 15.2002 69.5722 16.7332 69.5722 18.4823C69.5722 20.6434 68.4579 21.7172 67.1612 21.7172C65.5607 21.7172 64.6152 20.3732 64.6152 18.435C64.6152 16.4428 65.6214 15.2002 67.0329 15.2002Z" fill="#4C4C4D"/>
<path d="M74.5265 8.68848C74.4387 8.68848 74.3779 8.729 74.3779 8.83705V23.2082C74.3779 23.269 74.4387 23.3771 74.5265 23.3973C75.5328 23.708 76.5863 23.8566 77.6736 23.8566C80.7869 23.8566 83.8124 21.9251 83.8124 18.0352C83.8124 15.219 81.8809 13.0782 78.8554 13.0782C78.1598 13.0782 77.5115 13.1862 76.9442 13.3753L76.9172 8.85731C76.9172 8.70874 76.8767 8.68848 76.7281 8.68848H74.5265ZM81.2258 18.2918C81.2258 20.6217 79.6321 21.7157 77.9099 21.7157C77.552 21.7157 77.2346 21.6955 76.9442 21.6077V15.4756C77.2751 15.3473 77.6736 15.2393 78.4097 15.2393C80.071 15.2393 81.2258 16.2928 81.2258 18.2918Z" fill="#4C4C4D"/>
<path d="M92.357 19.0496C93.3835 19.0496 94.2276 19.0293 94.518 18.9618C94.6261 18.9415 94.6666 18.901 94.6869 18.8132C94.7477 18.5836 94.7747 18.1041 94.7747 17.5166C94.7747 15.5176 93.5726 13.0796 90.466 13.0796C87.2919 13.0796 85.5293 15.6661 85.5293 18.5836C85.5293 21.1701 86.8935 23.858 90.7159 23.858C92.1476 23.858 93.0728 23.6284 93.8697 23.2502C93.9508 23.2097 93.9913 23.1421 93.9913 23.0206V21.2714C93.9913 21.1701 93.9305 21.1499 93.8697 21.1904C93.0728 21.5281 92.2084 21.6969 91.2629 21.6969C89.1221 21.6969 88.1496 20.5151 88.0888 19.0496H92.357ZM88.0888 17.2397C88.2577 16.2132 88.906 15.0989 90.358 15.0989C91.9585 15.0989 92.3772 16.4428 92.3772 17.0506C92.3772 17.0708 92.3772 17.1586 92.3772 17.2194C92.2894 17.2397 92.0193 17.2397 91.2224 17.2397H88.0888Z" fill="#4C4C4D"/>
</g>
<defs>
<clipPath id="clip0_149_169">
<rect width="94.2083" height="34" fill="white" transform="translate(0.681641)"/>
</clipPath>
</defs>
</svg>
