<svg width="25" height="25" viewBox="0 0 25 25" fill="none" xmlns="http://www.w3.org/2000/svg">
<path fill-rule="evenodd" clip-rule="evenodd" d="M4.09961 12.5002C4.09961 12.0031 4.50255 11.6002 4.99961 11.6002L17.7651 11.6002L12.7758 6.84894C12.4175 6.50443 12.4063 5.93469 12.7509 5.5764C13.0954 5.2181 13.6651 5.20693 14.0234 5.55144L20.6234 11.8514C20.7999 12.0211 20.8996 12.2554 20.8996 12.5002C20.8996 12.745 20.7999 12.9793 20.6234 13.1489L14.0234 19.4489C13.6651 19.7935 13.0954 19.7823 12.7509 19.424C12.4063 19.0657 12.4175 18.496 12.7758 18.1514L17.7651 13.4002L4.99961 13.4002C4.50255 13.4002 4.09961 12.9973 4.09961 12.5002Z" fill="white"/>
</svg>
