<svg width="66" height="66" viewBox="0 0 66 66" fill="none" xmlns="http://www.w3.org/2000/svg">
<rect x="0.5" y="0.5" width="65" height="65" rx="7.5" fill="#FFF9F0"/>
<rect x="0.5" y="0.5" width="65" height="65" rx="7.5" stroke="#FFEACC"/>
<path d="M21.6733 41.0954L22.071 42.7042C22.5747 44.796 23.6749 45.8686 25.862 45.8686H40.138C42.3384 45.8686 43.4253 44.8227 43.9423 42.7042L44.34 41.0954H21.6733ZM21.2359 39.2585H44.7906L47.2826 28.9344L46.1957 28.3043L40.085 32.8093C39.6343 33.1311 39.3294 33.0104 39.0775 32.6484L33.3247 23.8529L32.6885 23.8261L26.8826 32.6886C26.6573 33.0372 26.3922 33.1445 25.9415 32.8227L19.9501 28.3981L18.6776 28.7333L21.2359 39.2585ZM19.168 31.616C20.9177 31.616 22.3228 30.1814 22.3228 28.3981C22.3228 26.6551 20.9177 25.2071 19.168 25.2071C17.4183 25.2071 16 26.6417 16 28.3981C16 30.1814 17.4316 31.616 19.168 31.616ZM33.0067 26.0384C34.7431 26.0384 36.1614 24.6037 36.1614 22.8339C36.1614 21.0909 34.7431 19.6428 33.0067 19.6428C31.2437 19.6428 29.8386 21.0775 29.8386 22.8339C29.8386 24.6037 31.2569 26.0384 33.0067 26.0384ZM46.8319 31.616C48.5685 31.616 50 30.1814 50 28.3981C50 26.6417 48.5817 25.2071 46.8319 25.2071C45.0956 25.2071 43.6772 26.6551 43.6772 28.3981C43.6772 30.1814 45.0956 31.616 46.8319 31.616Z" fill="#007AFF"/>
</svg>
