<svg width="66" height="66" viewBox="0 0 66 66" fill="none" xmlns="http://www.w3.org/2000/svg">
<rect x="0.5" y="0.5" width="65" height="65" rx="7.5" fill="#FFF9F0"/>
<rect x="0.5" y="0.5" width="65" height="65" rx="7.5" stroke="#FFEACC"/>
<path d="M33.1794 49.3169C38.1884 49.3169 42.2296 45.2756 42.2296 40.2809C42.2296 35.272 38.1884 31.2307 33.1794 31.2307C28.1847 31.2307 24.1434 35.272 24.1434 40.2809C24.1434 45.2756 28.1847 49.3169 33.1794 49.3169ZM30.6038 44.9341C30.0631 45.3325 29.4939 44.9199 29.7073 44.2938L30.7319 41.2343L28.1136 39.3702C27.6155 39.0002 27.772 38.303 28.4551 38.303L31.671 38.3314L32.6529 35.2578C32.8521 34.6317 33.5351 34.6317 33.7344 35.2578L34.7162 38.3314L37.9321 38.303C38.6152 38.303 38.7575 39.0144 38.2737 39.356L35.6554 41.2343L36.68 44.2938C36.8934 44.9199 36.3242 45.3325 35.7835 44.9341L33.1936 43.0415L30.6038 44.9341ZM24.5134 33.5075C25.9079 31.7429 27.829 30.4054 30.0346 29.7508L23.5884 18.1676L19.846 23.8738C19.5898 24.2438 19.5756 24.6565 19.8033 25.0264L24.5134 33.5075ZM29.9919 24.8984H36.3811L40.7212 17.2142H25.6518L29.9919 24.8984ZM36.3384 29.7508C38.5584 30.4054 40.4652 31.7429 41.8596 33.5075L46.5839 25.0264C46.7974 24.6565 46.7832 24.2438 46.5271 23.8738L42.7846 18.1676L36.3384 29.7508Z" fill="#007AFF"/>
</svg>
