<svg width="100" height="34" viewBox="0 0 100 34" fill="none" xmlns="http://www.w3.org/2000/svg">
<g clip-path="url(#clip0_149_156)">
<path d="M15.2747 2.18066C7.05948 2.18066 0.399414 8.84054 0.399414 17.0558C0.399414 25.2713 7.05948 31.9307 15.2747 31.9307C23.4908 31.9307 30.1501 25.2713 30.1501 17.0558C30.1501 8.84108 23.4908 2.18137 15.2745 2.18137L15.2747 2.18066ZM22.0964 23.6348C21.83 24.0718 21.258 24.2103 20.821 23.9421C17.3285 21.8088 12.9318 21.3256 7.75383 22.5086C7.25487 22.6223 6.75751 22.3097 6.64382 21.8106C6.52961 21.3114 6.84099 20.814 7.3412 20.7004C13.0076 19.4058 17.8681 19.9632 21.7891 22.3594C22.2261 22.6276 22.3646 23.1978 22.0964 23.6348ZM23.9171 19.5845C23.5814 20.1302 22.8673 20.3025 22.322 19.9668C18.3235 17.5091 12.2285 16.7973 7.49911 18.2329C6.88576 18.4182 6.23794 18.0725 6.05178 17.4602C5.86705 16.8469 6.21289 16.2003 6.82518 16.0138C12.2274 14.3746 18.9435 15.1686 23.5352 17.9903C24.0805 18.326 24.2528 19.0401 23.9171 19.5847V19.5845ZM24.0734 15.3668C19.2792 12.5193 11.3693 12.2574 6.79197 13.6467C6.05693 13.8696 5.27962 13.4547 5.05688 12.7196C4.83413 11.9842 5.24872 11.2075 5.98428 10.984C11.2388 9.38889 19.9737 9.69708 25.4934 12.9738C26.156 13.3662 26.3727 14.2201 25.9801 14.8803C25.5893 15.5415 24.7331 15.7594 24.0741 15.3668H24.0734ZM40.8701 15.9125C38.3016 15.3001 37.8451 14.8702 37.8451 13.9669C37.8451 13.1136 38.648 12.5393 39.8434 12.5393C41.0016 12.5393 42.1491 12.9754 43.3534 13.8732C43.3889 13.9003 43.4351 13.9112 43.4795 13.9041C43.5257 13.8973 43.5648 13.8726 43.5914 13.8355L44.8455 12.0677C44.897 11.9949 44.8828 11.8945 44.8135 11.8389C43.38 10.6891 41.7672 10.1301 39.8807 10.1301C37.1079 10.1301 35.17 11.7944 35.17 14.1755C35.17 16.7289 36.8415 17.633 39.7297 18.331C42.1864 18.8971 42.602 19.3713 42.602 20.219C42.602 21.1586 41.7636 21.7431 40.4136 21.7431C38.9144 21.7431 37.6905 21.2368 36.3228 20.0538C36.289 20.0236 36.2429 20.0112 36.2002 20.0129C36.154 20.0165 36.1132 20.0378 36.0848 20.0716L34.6779 21.7448C34.6193 21.8159 34.6264 21.9189 34.6939 21.9793C36.2855 23.4003 38.243 24.1499 40.3568 24.1499C43.3445 24.1499 45.2754 22.5175 45.2754 19.9898C45.2807 17.857 44.0035 16.6758 40.8755 15.9148L40.8701 15.9125ZM52.036 13.3795C50.741 13.3795 49.6788 13.8897 48.8013 14.935V13.7584C48.8013 13.6655 48.7267 13.5898 48.6343 13.5898H46.334C46.2417 13.5898 46.1671 13.6655 46.1671 13.7584V26.8322C46.1671 26.9245 46.2417 27.0009 46.334 27.0009H48.6343C48.7267 27.0009 48.8013 26.9245 48.8013 26.8322V22.7058C49.6788 23.6881 50.741 24.1695 52.036 24.1695C54.4428 24.1695 56.8799 22.3168 56.8799 18.775C56.8835 15.2326 54.4464 13.3793 52.0377 13.3793L52.036 13.3795ZM54.2048 18.775C54.2048 20.5778 53.0946 21.8372 51.5031 21.8372C49.931 21.8372 48.7445 20.521 48.7445 18.775C48.7445 17.0289 49.931 15.713 51.5031 15.713C53.068 15.7129 54.2048 17.0003 54.2048 18.7749V18.775ZM63.1236 13.3795C60.024 13.3795 57.5958 15.7662 57.5958 18.8136C57.5958 21.8283 60.008 24.189 63.0863 24.189C66.1966 24.189 68.6319 21.8106 68.6319 18.775C68.6319 15.7498 66.2126 13.3799 63.1236 13.3799V13.3795ZM63.1236 21.855C61.4752 21.855 60.2318 20.5298 60.2318 18.7741C60.2318 17.0105 61.4326 15.7306 63.0863 15.7306C64.7454 15.7306 65.9959 17.0552 65.9959 18.8127C65.9959 20.576 64.788 21.855 63.1236 21.855ZM75.2504 13.5898H72.7192V11.0025C72.7192 10.9098 72.6446 10.8341 72.5522 10.8341H70.2519C70.1596 10.8341 70.0832 10.9098 70.0832 11.0025V13.5898H68.9783C68.8859 13.5898 68.8113 13.6655 68.8113 13.7584V15.7349C68.8113 15.8276 68.8859 15.9035 68.9783 15.9035H70.0832V21.0183C70.0832 23.0842 71.1116 24.1322 73.142 24.1322C73.9662 24.1322 74.65 23.9616 75.2948 23.5957C75.3481 23.5673 75.3801 23.5105 75.3801 23.4501V21.5672C75.3801 21.5104 75.3499 21.4553 75.3002 21.4251C75.2504 21.3931 75.1883 21.3913 75.1367 21.418C74.6945 21.64 74.2664 21.7431 73.7868 21.7431C73.0496 21.7431 72.7192 21.4073 72.7192 20.6577V15.9044H75.2504C75.3428 15.9044 75.4174 15.8287 75.4174 15.7358V13.7595C75.421 13.6666 75.3464 13.5909 75.2522 13.5909L75.2504 13.5898ZM84.068 13.6V13.2822C84.068 12.3473 84.4268 11.9304 85.2297 11.9304C85.7093 11.9304 86.0947 12.0256 86.5264 12.1695C86.5797 12.1862 86.6348 12.1779 86.6774 12.1461C86.7218 12.1143 86.7467 12.0633 86.7467 12.0093V10.0713C86.7467 9.99727 86.7005 9.93173 86.6276 9.90988C86.1729 9.77434 85.5903 9.63526 84.7163 9.63526C82.5937 9.63526 81.4693 10.8314 81.4693 13.0932V13.5799H80.3644C80.272 13.5799 80.1957 13.6556 80.1957 13.7483V15.7349C80.1957 15.8276 80.272 15.9035 80.3644 15.9035H81.4693V23.7911C81.4693 23.8853 81.5456 23.9599 81.638 23.9599H83.9365C84.0307 23.9599 84.1053 23.8853 84.1053 23.7911V15.904H86.2528L89.5426 23.7911C89.1695 24.6189 88.8018 24.7841 88.3009 24.7841C87.8959 24.7841 87.4678 24.6633 87.0326 24.4235C86.9918 24.4022 86.942 24.3986 86.8994 24.4111C86.855 24.427 86.8177 24.459 86.7999 24.5016L86.0201 26.2122C85.9828 26.2939 86.0148 26.3881 86.093 26.4307C86.9065 26.8712 87.6401 27.0595 88.5478 27.0595C90.246 27.0595 91.1856 26.2673 92.0116 24.1393L96.0012 13.8302C96.0225 13.7783 96.0154 13.7197 95.9834 13.6737C95.9532 13.628 95.9017 13.6005 95.8466 13.6005H93.4522C93.3794 13.6005 93.3154 13.6461 93.2923 13.7135L90.8393 20.7181L88.1535 13.7088C88.1286 13.6437 88.0664 13.6005 87.9972 13.6005H84.068V13.6ZM78.9558 13.5898H76.6555C76.5631 13.5898 76.4867 13.6655 76.4867 13.7584V23.7911C76.4867 23.8853 76.5631 23.9599 76.6555 23.9599H78.9558C79.0482 23.9599 79.1245 23.8853 79.1245 23.7911V13.7591C79.1245 13.6662 79.0499 13.5905 78.9558 13.5905V13.5898ZM77.819 9.02137C76.9077 9.02137 76.1688 9.75889 76.1688 10.67C76.1688 11.5816 76.9077 12.32 77.819 12.32C78.7302 12.32 79.4674 11.5816 79.4674 10.67C79.4674 9.75907 78.7284 9.02137 77.819 9.02137ZM97.9658 16.8158C97.0563 16.8158 96.3476 16.0848 96.3476 15.1972C96.3476 14.3096 97.0652 13.5703 97.9747 13.5703C98.8841 13.5703 99.5929 14.3011 99.5929 15.188C99.5929 16.0756 98.8752 16.8158 97.9658 16.8158ZM97.9747 13.7312C97.1451 13.7312 96.5181 14.3902 96.5181 15.1972C96.5181 16.0038 97.1416 16.654 97.9658 16.654C98.7953 16.654 99.4223 15.9955 99.4223 15.188C99.4223 14.3814 98.7989 13.7312 97.9747 13.7312ZM98.3335 15.3544L98.7917 15.9953H98.4045L97.9924 15.4073H97.6389V15.9953H97.3156V14.2964H98.0723C98.4685 14.2964 98.7278 14.4984 98.7278 14.8384C98.7296 15.1169 98.5679 15.2871 98.3352 15.3544H98.3335ZM98.0599 14.5879H97.6389V15.1253H98.0599C98.2695 15.1253 98.3956 15.0224 98.3956 14.8563C98.3956 14.6816 98.2695 14.5879 98.0599 14.5879Z" fill="#4C4C4D"/>
</g>
<defs>
<clipPath id="clip0_149_156">
<rect width="99.1667" height="34" fill="white" transform="translate(0.345703)"/>
</clipPath>
</defs>
</svg>
