<svg width="69" height="34" viewBox="0 0 69 34" fill="none" xmlns="http://www.w3.org/2000/svg">
<g clip-path="url(#clip0_149_152)">
<path d="M0.643555 25.0714L7.62378 14.2099H1.47045C1.41831 13.897 1.39596 13.5544 1.39596 13.1744C1.39596 12.8094 1.41831 12.4742 1.47045 12.1688H11.4305L11.5571 12.504L4.52477 23.3878H11.1176C11.1698 23.7305 11.1921 24.088 11.1921 24.4456C11.1921 24.7883 11.1698 25.1161 11.1176 25.4289H0.770197L0.643555 25.0714Z" fill="#4C4C4D"/>
<path d="M20.7872 16.6908C20.7872 15.6702 20.5264 14.9699 20.0124 14.5677C19.4984 14.1728 18.746 13.9717 17.7627 13.9717C17.1593 13.9717 16.5931 14.0164 16.0716 14.1132C15.5427 14.2101 15.0361 14.3293 14.5296 14.4857C14.2018 13.9195 14.0379 13.2342 14.0379 12.4445C14.6264 12.2583 15.2671 12.1093 15.9748 12.005C16.6825 11.9007 17.3604 11.8486 18.0159 11.8486C19.7368 11.8486 21.0479 12.2434 21.9493 13.0256C22.8433 13.8078 23.2977 15.0668 23.2977 16.7876V25.0864C22.6943 25.2205 21.9642 25.3695 21.1001 25.511C20.2359 25.66 19.3569 25.7271 18.4629 25.7271C17.6211 25.7271 16.8538 25.6526 16.1759 25.4961C15.498 25.3397 14.9169 25.0939 14.4402 24.7437C13.9634 24.4011 13.5984 23.9615 13.3376 23.4252C13.0769 22.8888 12.9503 22.2407 12.9503 21.4883C12.9503 20.7508 13.0992 20.0952 13.4047 19.5365C13.7027 18.9778 14.1124 18.5085 14.6339 18.1434C15.1479 17.771 15.7438 17.4953 16.4217 17.3165C17.0922 17.1377 17.7999 17.0409 18.5449 17.0409C19.0961 17.0409 19.5506 17.0558 19.9007 17.0781C20.2508 17.1005 20.5488 17.1377 20.7946 17.1675V16.6908H20.7872ZM20.7872 19.2013C20.5264 19.164 20.1987 19.1342 19.8038 19.097C19.409 19.0597 19.0738 19.0448 18.7981 19.0448C17.7254 19.0448 16.9134 19.246 16.3547 19.6408C15.796 20.0356 15.5129 20.639 15.5129 21.451C15.5129 21.9651 15.6097 22.3748 15.796 22.6653C15.9822 22.9558 16.2206 23.1793 16.5037 23.3358C16.7868 23.4922 17.0997 23.5891 17.4498 23.6189C17.7925 23.6561 18.1202 23.671 18.4331 23.671C18.8279 23.671 19.2377 23.6487 19.6623 23.604C20.0869 23.5593 20.4594 23.4997 20.7872 23.4103V19.2013Z" fill="#4C4C4D"/>
<path d="M26.0912 12.1693C26.2625 12.1321 26.4413 12.1097 26.6201 12.0948C26.7989 12.0799 26.9851 12.0725 27.1788 12.0725C27.3502 12.0725 27.529 12.0799 27.7226 12.0948C27.9089 12.1097 28.0951 12.1395 28.2665 12.1693C28.2814 12.2066 28.3037 12.3109 28.3335 12.4896C28.3559 12.6684 28.3857 12.8621 28.408 13.0707C28.4304 13.2793 28.4602 13.473 28.4825 13.6667C28.5049 13.8604 28.5198 13.9796 28.5198 14.0317C28.6911 13.7561 28.8997 13.4879 29.1381 13.2272C29.3764 12.9664 29.667 12.7355 30.0022 12.5269C30.3374 12.3183 30.7174 12.1544 31.142 12.0352C31.5666 11.916 32.0359 11.8564 32.55 11.8564C33.3247 11.8564 34.0473 11.9831 34.7103 12.2438C35.3733 12.5045 35.9395 12.8994 36.4163 13.4432C36.893 13.987 37.2581 14.6798 37.5262 15.5142C37.7944 16.3485 37.9285 17.3393 37.9285 18.4791C37.9285 20.7586 37.3102 22.5391 36.081 23.8204C34.8444 25.1017 33.1012 25.7498 30.844 25.7498C30.4641 25.7498 30.0767 25.7275 29.6819 25.6754C29.2871 25.6232 28.9369 25.5562 28.6464 25.4668V31.5456C28.4378 31.5828 28.2218 31.6052 27.9834 31.6201C27.7524 31.635 27.5364 31.6424 27.3502 31.6424C27.1639 31.6424 26.9479 31.635 26.717 31.6201C26.486 31.6052 26.27 31.5754 26.0837 31.5456V12.1693H26.0912ZM28.6538 23.2617C28.9816 23.3809 29.3169 23.4703 29.6595 23.5224C30.0022 23.5746 30.4492 23.5969 31.0079 23.5969C31.6262 23.5969 32.1998 23.5001 32.7138 23.2989C33.2279 23.0978 33.6748 22.7924 34.0473 22.3826C34.4198 21.9655 34.7103 21.444 34.9264 20.8182C35.1424 20.1925 35.2467 19.4401 35.2467 18.5834C35.2467 17.2052 34.9934 16.1101 34.4868 15.2981C33.9803 14.4861 33.1459 14.0838 31.9912 14.0838C31.5592 14.0838 31.1494 14.1583 30.7472 14.3148C30.3523 14.4712 29.9948 14.7022 29.6893 15.015C29.3764 15.3279 29.1306 15.7153 28.9369 16.1921C28.7432 16.6688 28.6538 17.2276 28.6538 17.8831V23.2617Z" fill="#4C4C4D"/>
<path d="M41.1169 14.1801H39.4333C39.3961 14.0386 39.3737 13.8821 39.3588 13.7034C39.3439 13.5246 39.3365 13.3458 39.3365 13.1744C39.3365 13.0031 39.3439 12.8243 39.3588 12.6455C39.3737 12.4667 39.4035 12.3028 39.4333 12.1688H43.6274V25.4364C43.4412 25.4736 43.2251 25.496 42.9942 25.5109C42.7633 25.5258 42.5472 25.5332 42.361 25.5332C42.1897 25.5332 41.9885 25.5258 41.7501 25.5109C41.5192 25.496 41.3032 25.4662 41.1169 25.4364V14.1801Z" fill="#4C4C4D"/>
<path d="M49.1326 19.4324C49.1699 20.8776 49.5423 21.9429 50.2575 22.6134C50.9727 23.2838 52.0305 23.619 53.4236 23.619C54.6453 23.619 55.8149 23.403 56.9174 22.9709C57.0589 23.2317 57.1707 23.5445 57.2526 23.917C57.342 24.2895 57.3867 24.6545 57.4091 25.0196C56.8429 25.2579 56.2171 25.4442 55.5318 25.5634C54.8539 25.6826 54.094 25.7422 53.2671 25.7422C52.0603 25.7422 51.0248 25.5708 50.1607 25.2356C49.2965 24.9004 48.5888 24.4236 48.0301 23.8127C47.4714 23.2019 47.0616 22.4793 46.8009 21.6375C46.5402 20.8031 46.4135 19.8868 46.4135 18.8811C46.4135 17.8978 46.5402 16.9815 46.786 16.1248C47.0318 15.2681 47.4192 14.5306 47.9332 13.8974C48.4473 13.2716 49.1028 12.765 49.885 12.4C50.6672 12.0275 51.5984 11.8413 52.6637 11.8413C53.58 11.8413 54.3771 11.9977 55.0699 12.3106C55.7627 12.6235 56.3363 13.0481 56.8057 13.5919C57.2675 14.1358 57.6251 14.7839 57.8635 15.5288C58.1019 16.2812 58.2285 17.0932 58.2285 17.9723C58.2285 18.2107 58.2211 18.4714 58.1987 18.7321C58.1838 19.0003 58.1615 19.2313 58.1466 19.4175H49.1326V19.4324ZM55.7031 17.5179C55.7031 17.0336 55.6361 16.5718 55.5094 16.1322C55.3828 15.6927 55.1891 15.3128 54.9433 14.985C54.69 14.6572 54.3771 14.3965 53.9897 14.1954C53.6023 13.9942 53.1405 13.8974 52.6041 13.8974C51.5537 13.8974 50.7492 14.2177 50.183 14.8509C49.6243 15.4916 49.2816 16.3781 49.1624 17.5179H55.7031Z" fill="#4C4C4D"/>
<path d="M61.0594 12.1688C61.2456 12.1315 61.4319 12.1092 61.6032 12.0943C61.7746 12.0794 61.9533 12.0719 62.147 12.0719C62.3333 12.0719 62.527 12.0794 62.7132 12.0943C62.8994 12.1092 63.0782 12.139 63.2272 12.1688C63.2794 12.4295 63.3315 12.7647 63.3837 13.1893C63.4358 13.614 63.4581 13.9715 63.4581 14.2621C63.8232 13.6736 64.2999 13.167 64.8959 12.7349C65.4919 12.3028 66.2517 12.0868 67.1829 12.0868C67.3245 12.0868 67.466 12.0943 67.6075 12.1017C67.7565 12.1092 67.8757 12.1241 67.98 12.139C68.0173 12.2954 68.0396 12.4593 68.0545 12.6306C68.0694 12.802 68.0769 12.9808 68.0769 13.1744C68.0769 13.383 68.062 13.5991 68.0396 13.8226C68.0173 14.046 67.98 14.2621 67.9502 14.4707C67.8087 14.4334 67.6671 14.4185 67.5256 14.4185C67.3766 14.4185 67.2649 14.4185 67.1755 14.4185C66.7136 14.4185 66.2666 14.4856 65.842 14.6122C65.4174 14.7388 65.0375 14.9698 64.7022 15.2976C64.367 15.6253 64.0988 16.0723 63.8977 16.6459C63.6965 17.2121 63.5997 17.9496 63.5997 18.8436V25.4364C63.4134 25.4736 63.1974 25.496 62.9665 25.5109C62.7355 25.5258 62.5195 25.5332 62.3333 25.5332C62.147 25.5332 61.931 25.5258 61.7001 25.5109C61.4691 25.496 61.2456 25.4662 61.037 25.4364V12.1688H61.0594Z" fill="#4C4C4D"/>
<path d="M46.0633 4.36192H43.5603L45.3333 2.58892C45.1917 2.39524 45.0353 2.209 44.8714 2.03766C44.7 1.86632 44.5213 1.70988 44.3201 1.57579L42.5471 3.34878V0.845729C42.3162 0.808481 42.0778 0.786133 41.832 0.786133H41.8245C41.5787 0.786133 41.3403 0.808481 41.1094 0.845729V3.34878L39.3364 1.57579C39.1427 1.71733 38.9564 1.87377 38.7851 2.03766C38.6138 2.209 38.4648 2.38779 38.3232 2.58892L40.1037 4.36192H37.6006C37.6006 4.36192 37.541 4.83124 37.541 5.07707C37.541 5.32291 37.5634 5.56129 37.6006 5.79223H40.1037L38.3307 7.56522C38.6063 7.9526 38.949 8.29528 39.3438 8.57836L41.1168 6.80537V9.30842C41.3478 9.34566 41.5861 9.36801 41.832 9.36801H41.8394C42.0853 9.36801 42.3236 9.34566 42.5546 9.30842V6.80537L44.3276 8.57836C44.5213 8.43682 44.7075 8.28038 44.8788 8.11649C45.0502 7.94515 45.2066 7.76636 45.3407 7.56522L43.5677 5.79223H46.0708C46.108 5.56129 46.1304 5.32291 46.1304 5.07707V5.06962C46.1229 4.83124 46.108 4.59285 46.0633 4.36192ZM42.9047 5.08452C42.9047 5.40485 42.8451 5.71029 42.7408 5.99337C42.4577 6.09766 42.1523 6.15726 41.832 6.15726C41.5116 6.15726 41.2062 6.09766 40.9231 5.99337C40.8188 5.71029 40.7592 5.40485 40.7592 5.08452V5.07707C40.7592 4.75674 40.8188 4.45131 40.9231 4.16823C41.2062 4.06393 41.5116 4.00434 41.832 4.00434C42.1523 4.00434 42.4577 4.06393 42.7408 4.16823C42.8451 4.45131 42.9047 4.75674 42.9047 5.08452Z" fill="#4C4C4D"/>
</g>
<defs>
<clipPath id="clip0_149_152">
<rect width="68" height="34" fill="white" transform="translate(0.642578)"/>
</clipPath>
</defs>
</svg>
